<svg version="1.2" xmlns="http://www.w3.org/2000/svg" viewBox="0 0 500 500" width="500" height="500">
	<style>
		.s0 { fill: #474747 } 
		.s1 { fill: #f2f2f2;paint-order:stroke fill markers;stroke: #000000;stroke-width: 2;stroke-linejoin: round; } 
	</style>
	<path id="Shape 2" fill-rule="evenodd" class="s0" d="m249.55 472.1c-123.07 0-222.55-99.48-222.55-222.55 0-123.07 99.48-222.55 222.55-222.55 123.07 0 222.55 99.48 222.55 222.55 0 123.07-99.48 222.55-222.55 222.55z"/>
	<path id="SJ" class="s1" aria-label="SJ"  d="m252.5 279.1q0 20-7.1 35.1-6.8 15-19 24.9-12 10-28.3 15-16.1 5-34.7 5-7.2 0-15.8-2-8.5-1.9-17.3-4.6-8.8-3-17-6.2-8-3.4-14.3-6.3l6.4-60.3q12.5 7.4 27.5 11.4 15.3 3.8 29.9 3.8 2.8 0 6.8-0.2 3.9-0.2 7.4-1.3 3.7-1.1 6.2-3.3 2.5-2.2 2.5-6.3 0-2.8-1.8-4.7-1.7-2.1-4.5-3.3-2.8-1.3-6.3-1.9-3.5-0.7-6.9-1-3.4-0.3-6.3-0.3-2.9 0-4.7 0-12.6 0-23-4.4-10.2-4.4-17.7-12.1-7.3-7.9-11.4-18.6-4.1-10.9-4.1-23.5 0-17.3 6.8-30.9 7.1-13.7 18.6-23.3 11.8-9.6 26.9-14.8 15-5.1 31.2-5.1 7.1 0 14.7 0.6 7.7 0.4 15.1 1.8 7.7 1.3 14.8 3.3 7.2 2.1 13.7 5.1l-5.6 59.5q-10-3.3-21-5.5-10.8-2.4-21.2-2.4-1.9 0-5 0.2-2.9 0-6.3 0.4-3.2 0.3-6.6 1-3.3 0.8-6 2.1-2.6 1.1-4.2 3.2-1.6 2-1.5 4.8 0.2 3.3 2.4 5.3 2.3 1.9 5.8 3.1 3.7 1 7.9 1.4 4.4 0.5 8.7 0.6 4.2 0 7.9 0 3.6-0.1 6 0.2 11.7 0.7 21.1 5 9.3 4.2 15.8 11.2 6.6 7.1 10 16.9 3.5 9.7 3.5 21.4zm148.9-42.8q0 8.6 0 17.1 0 8.5-0.9 17.2-1.6 18.3-7.9 34.7-6.3 16.3-17.2 28.6-10.7 12.3-26 19.4-15.4 7.2-35.3 7.2-7.8 0-16.3-1.3-8.4-1.3-16.7-4-8.2-2.6-15.8-6.4-7.5-4-13.4-9.1l9.1-60.6q8.7 8.3 19.2 13.6 10.6 5.1 23 5.1 8.1 0 13.6-2.3 5.6-2.4 9.3-6.5 3.6-4.1 5.7-9.5 2.2-5.6 3.1-11.7 1-6.3 1.1-12.9 0.3-6.6 0.3-13 0-23.3-2.3-46.3-2.4-23.2-4.1-46.3l67.1-4.4q4.4 45.7 4.4 91.4z"/>
</svg>